PathFileType	4	(X/Y/Z)	C:\Users\WrightLab\Desktop\Jo\P2_Trial24.trc
DataRate	CameraRate	NumFrames	NumMarkers	Units	OrigDataRate	OrigDataStartFrame	OrigNumFrames
100.00	100.00	       26	19	mm	100.00	150	       597
Frame#	Time	Headset_Front			Headset_Back			Headset_Left			Headset_Right			Left_Shoulder			Right_Shoulder			Sternum			C7			Left Elbow			Right Elbow			Left Wrist			Right Wrist			Left ASIS			Right ASIS			S2			Left Knee			Right Knee			Left Ankle			Right Ankle			
		X1	Y1	Z1	X2	Y2	Z2	X3	Y3	Z3	X4	Y4	Z4	X5	Y5	Z5	X6	Y6	Z6	X7	Y7	Z7	X8	Y8	Z8	X9	Y9	Z9	X10	Y10	Z10	X11	Y11	Z11	X12	Y12	Z12	X13	Y13	Z13	X14	Y14	Z14	X15	Y15	Z15	X16	Y16	Z16	X17	Y17	Z17	X18	Y18	Z18	X19	Y19	Z19	

150	1.490																									-186.50943	1064.65942	-1266.62939							-780.68732	816.11462	-1388.11194	-426.23505	984.33655	-1218.46045	-559.68994	968.74231	-1250.85156				-265.07755	399.22061	-1325.27002										
151	1.500																									-193.93582	1065.43311	-1262.27319							-783.24817	815.56042	-1382.48242	-430.71393	984.03436	-1215.99255	-564.36951	969.31982	-1245.26892				-280.12320	399.02618	-1318.44531										
152	1.510																									-200.08046	1066.03662	-1258.29834							-786.46991	815.52930	-1376.41895	-436.38397	984.91803	-1208.79553	-569.20917	971.65967	-1238.79163				-292.24911	400.34158	-1310.42175										
153	1.520																									-205.74344	1066.67737	-1256.20959							-789.98584	814.80499	-1368.33289	-441.32645	985.38861	-1206.61963	-574.34375	971.55463	-1235.31213				-303.38623	404.04868	-1303.02368										
154	1.530																									-212.02203	1067.81445	-1251.53357							-792.33960	815.57513	-1363.19312	-446.70929	985.84155	-1203.82446	-579.03412	974.02747	-1228.23486				-313.87424	408.90781	-1294.03259										
155	1.540																									-217.47858	1068.38831	-1248.51270							-795.50134	815.26276	-1355.40710	-451.74271	988.29669	-1195.81079	-583.53052	972.98370	-1230.49133	-463.22797	928.64111	-1474.34460	-326.22824	412.64545	-1278.36633										
156	1.550																									-222.48259	1068.26501	-1245.33606							-798.56799	815.22675	-1347.55713	-456.45853	988.76910	-1191.53882	-588.16052	975.90881	-1216.34277	-465.42172	928.63379	-1468.18701	-336.76483	415.53232	-1263.94958										
157	1.560																									-228.23032	1068.42676	-1241.43604							-803.12329	812.60339	-1354.61694	-461.97714	989.43323	-1186.65100	-593.72479	973.95587	-1222.93311	-467.43655	928.91663	-1463.33704	-347.50555	420.31146	-1248.83032										
158	1.570																									-233.45387	1069.71985	-1237.15747							-804.12848	816.50702	-1333.84021	-467.53113	992.13300	-1179.21777	-598.71204	976.78424	-1212.12622	-469.40491	929.68140	-1458.50635	-355.46915	424.44751	-1237.91809										
159	1.580																									-238.98366	1070.28638	-1233.21655							-807.03680	816.41602	-1325.40320	-473.20895	991.82495	-1175.79407	-603.79272	976.85126	-1211.01208	-471.39304	929.72156	-1452.64197	-365.48657	426.76727	-1219.36377										
160	1.590																									-243.71637	1070.34473	-1230.73413							-810.48663	813.29852	-1331.27502	-478.02881	992.83905	-1172.51501	-608.18982	979.98370	-1197.32422	-473.12430	929.96887	-1446.41272	-374.03903	429.40253	-1204.85498										
161	1.600																			-529.09589	1295.32190	-1191.60071				-249.26164	1070.23267	-1224.84070							-812.59686	816.55963	-1308.98401	-482.59976	993.51080	-1167.72034	-612.74329	978.60468	-1199.08057	-474.99841	930.65509	-1441.48657	-381.02179	432.37137	-1190.57910										
162	1.610																			-533.25934	1295.08875	-1186.37524				-254.23428	1070.13965	-1221.12256							-815.50122	817.02661	-1301.52917	-487.43903	993.95746	-1161.64758	-617.49622	980.52374	-1188.06873	-477.19241	930.50537	-1435.65662	-388.77286	433.54294	-1173.64514										
163	1.620																			-536.77252	1294.49988	-1181.23804				-259.75391	1069.83142	-1215.79883							-817.67352	816.14301	-1292.86389	-491.12723	994.86377	-1153.65576	-621.55316	979.96094	-1185.09497	-479.48447	930.45477	-1429.73706	-396.49677	434.75250	-1158.57385										
164	1.630	-660.37158	1541.26733	-1117.22400																-540.30035	1295.57874	-1176.12622				-264.74780	1069.79272	-1210.69397							-820.81750	817.10657	-1286.00745	-494.62341	994.83667	-1147.01404	-625.00604	981.41516	-1178.85730	-482.05414	930.52551	-1424.29504	-403.29401	434.08383	-1142.78015										
165	1.640	-664.08459	1541.55505	-1110.94751																-544.64221	1294.94128	-1171.09521				-269.34253	1069.37622	-1206.04944	-788.33417	1069.85229	-1319.28650				-824.24237	815.60718	-1275.15796	-499.32227	994.69226	-1145.40576	-628.22565	979.31848	-1174.21960	-484.77051	930.78247	-1419.04492	-410.20209	434.54663	-1127.13049										
166	1.650	-667.69525	1541.88403	-1104.95593																-549.70319	1294.06909	-1165.15356				-274.97729	1068.86072	-1199.04883	-792.73145	1069.03943	-1311.62463				-826.38593	816.30676	-1269.04419	-504.29034	994.50751	-1140.36133	-632.05542	978.84363	-1166.96326	-487.47244	930.16138	-1412.20361	-416.32779	434.73373	-1113.61072										
167	1.660	-671.18219	1542.08374	-1098.46533																-554.12933	1293.69470	-1159.00793				-278.57196	1067.83289	-1194.00903	-797.09698	1068.22388	-1304.10693				-829.54993	814.55975	-1258.07324	-507.15265	994.20569	-1130.58875	-635.88690	979.21094	-1163.15906	-490.26901	929.84119	-1406.49670	-423.85596	434.04596	-1097.97607										
168	1.670	-674.62250	1542.05640	-1092.27954																-556.52380	1292.86670	-1153.28284				-283.89600	1067.38208	-1189.00671	-800.39215	1068.24231	-1298.30286				-832.90668	814.16797	-1248.68311	-510.19528	993.04968	-1126.25916	-638.59784	977.68054	-1156.78992	-493.10992	929.93372	-1400.83765	-429.96997	434.61191	-1084.32593										
169	1.680	-677.96051	1541.85376	-1085.78040																-560.96582	1293.04382	-1147.37769				-288.66354	1066.49036	-1181.42456	-804.64807	1066.50500	-1288.77356				-835.70758	813.48480	-1239.53442	-514.21466	991.95074	-1122.18945	-642.78156	976.30371	-1151.18872	-495.93320	930.03748	-1394.86963	-435.72339	436.66489	-1069.53589										
170	1.690	-681.19812	1541.62744	-1078.94861																-565.13947	1292.45129	-1141.61353				-292.61865	1066.11169	-1174.22632	-808.48004	1065.70215	-1281.26233				-838.17084	812.22333	-1229.85498	-517.78516	992.14978	-1112.73621	-646.92432	974.38440	-1148.38611	-498.84692	929.91443	-1389.08984	-442.45993	438.14505	-1057.54016										
171	1.700	-684.35992	1541.31494	-1071.98975																-570.28192	1291.98145	-1135.82788				-295.89114	1065.81030	-1169.39587	-811.91302	1065.56934	-1275.21753				-841.30371	811.71674	-1220.11926	-520.83386	992.70386	-1107.57520	-649.41687	975.87958	-1139.74316	-501.58176	929.54108	-1382.36389	-447.85440	442.62430	-1044.02490										
172	1.710	-687.39502	1541.21460	-1065.18262													-733.26532	1394.22803	-1209.20923	-572.75287	1290.61975	-1129.21216				-299.96198	1065.41003	-1161.92444	-815.86145	1062.86829	-1263.47363				-844.38049	810.86359	-1209.72498	-525.51740	992.57178	-1099.88708	-652.62878	972.81360	-1138.11255	-504.20346	928.94672	-1375.86829	-453.16867	445.48889	-1033.51648										
173	1.720	-690.40155	1540.80615	-1057.55750													-736.69293	1393.10193	-1203.97681	-577.41388	1290.12964	-1122.49207				-304.03354	1063.62012	-1153.78979	-818.68805	1062.88196	-1257.69531	-280.33832	821.75378	-1141.91467	-846.71582	809.99280	-1200.07861	-529.15454	990.70007	-1093.11694	-657.75806	971.97205	-1128.53345	-506.61353	928.31879	-1369.63855	-460.54327	448.07233	-1020.85052										
174	1.730	-693.32202	1540.48682	-1050.18066													-740.87384	1393.14258	-1197.84070	-582.13470	1289.95764	-1117.17102				-305.28226	1063.31970	-1150.34290	-821.78772	1062.03687	-1250.09106	-280.68500	820.42029	-1138.27832	-849.26886	809.59100	-1190.32458	-532.93262	991.34741	-1086.00610	-660.49060	970.93823	-1120.82227	-508.64142	927.69788	-1362.68457	-467.40756	449.44934	-1010.67407										
175	1.740	-696.08093	1539.80676	-1042.48328													-744.48712	1391.74792	-1191.29602	-584.78577	1287.46741	-1109.66760				-308.24359	1063.50122	-1141.11401	-824.92108	1060.30042	-1240.53040	-283.77066	820.94342	-1130.74475	-853.53473	806.81940	-1187.42249	-535.26239	990.85895	-1079.17786	-662.54260	970.34607	-1113.13196	-510.59735	926.79718	-1355.54163	-473.41180	450.92801	-1002.40973										
